PathFileType	4	(X/Y/Z)	c:/Users/goper/Files/vsCode/490R/osim_files/C15/C15_Fast_02.trc
DataRate	CameraRate	NumFrames	NumMarkers	Units                	OrigDataRate	OrigDataStartFrame	OrigNumFrames
250.00	250.00	7	36	mm	250.0	1593	2123
                Frame#	Time	LPSIS			LASIS			LTH1			LTH2			LTH3			LTH4			LLFE			LMFE			LSH1			LSH2			LSH3			LSH4			LLMAL			LMMAL			LCAL			LMTP5			LTOE			LMTP1			RPSIS			RASIS			RTH1			RTH2			RTH3			RTH4			RLFE			RMFE			RSH1			RSH2			RSH3			RSH4			RLMAL			RMMAL			RCAL			RMTP1			RTOE			RMTP5		
		X1	Y1	Z1	X2	Y2	Z2	X3	Y3	Z3	X4	Y4	Z4	X5	Y5	Z5	X6	Y6	Z6	X7	Y7	Z7	X8	Y8	Z8	X9	Y9	Z9	X10	Y10	Z10	X11	Y11	Z11	X12	Y12	Z12	X13	Y13	Z13	X14	Y14	Z14	X15	Y15	Z15	X16	Y16	Z16	X17	Y17	Z17	X18	Y18	Z18	X19	Y19	Z19	X20	Y20	Z20	X21	Y21	Z21	X22	Y22	Z22	X23	Y23	Z23	X24	Y24	Z24	X25	Y25	Z25	X26	Y26	Z26	X27	Y27	Z27	X28	Y28	Z28	X29	Y29	Z29	X30	Y30	Z30	X31	Y31	Z31	X32	Y32	Z32	X33	Y33	Z33	X34	Y34	Z34	X35	Y35	Z35	X36	Y36	Z36

1593	6.36800	0.00000	0.00000	0.00000	-3620.21899	973.63635	293.11462	-3510.95972	586.66138	359.04376	0.00000	0.00000	0.00000	-3560.39941	589.68640	361.13031	-3561.68311	544.74084	356.42154	0.00000	0.00000	0.00000	-3518.28833	471.19772	341.50156	-3408.97485	443.91290	343.82928	-3371.91724	415.19391	344.84671	0.00000	0.00000	0.00000	-3398.92432	370.33896	352.09186	-3187.30518	227.21883	284.65189	-3221.66528	222.64314	202.63380	-3141.95239	274.49417	239.47946	-3178.97485	89.44799	282.69666	-3235.81348	62.02549	223.27588	-3199.02441	95.31412	166.79956	0.00000	0.00000	0.00000	-3648.59131	989.92676	45.91909	-3703.02563	634.39130	-9.03497	-3719.51416	591.77863	3.56536	-3756.68262	653.44348	8.49203	-3766.21362	606.79260	15.44438	-3752.28027	509.04816	40.45039	-3727.14453	492.79147	154.32578	-3749.78247	393.04587	22.65608	-3743.31689	351.06262	19.50550	-3689.04468	398.11502	12.88663	0.00000	0.00000	0.00000	0.00000	0.00000	0.00000	-3731.11694	122.67138	173.61635	0.00000	0.00000	0.00000	0.00000	0.00000	0.00000	-752.02240	734.85004	2361.64795	0.00000	0.00000	0.00000
1594	6.37200	0.00000	0.00000	0.00000	-3624.70728	974.02258	293.05228	-3519.35913	586.59113	359.00980	0.00000	0.00000	0.00000	-3568.64795	589.96277	361.32819	0.00000	0.00000	0.00000	0.00000	0.00000	0.00000	-3528.08887	471.25574	341.81833	0.00000	0.00000	0.00000	-3380.34595	417.85580	346.34750	0.00000	0.00000	0.00000	-3409.02588	370.90610	352.62274	-3195.67944	230.54027	285.48709	-3230.63037	224.30064	203.19853	-3153.50806	279.59555	240.99901	-3182.28076	92.14453	282.13687	-3239.31104	62.84423	223.87813	-3204.38525	98.61031	167.55118	0.00000	0.00000	0.00000	-3653.60059	990.40997	45.83608	0.00000	0.00000	0.00000	-3723.03198	591.96222	3.59675	-3760.42212	653.45795	8.53647	-3769.77075	606.78320	15.52099	-3755.48608	509.04422	40.55347	-3729.64258	493.19470	154.35936	-3751.57104	392.88596	22.90472	-3744.81885	350.98123	19.62414	-3690.94507	398.44717	13.36025	0.00000	0.00000	0.00000	0.00000	0.00000	0.00000	-3731.44434	122.63808	173.72675	0.00000	0.00000	0.00000	0.00000	0.00000	0.00000	-752.02032	734.81592	2361.66968	0.00000	0.00000	0.00000
1595	6.37600	0.00000	0.00000	0.00000	-3629.35522	974.54932	292.94849	-3527.76978	586.62683	358.97742	0.00000	0.00000	0.00000	-3576.91284	590.35632	361.46359	0.00000	0.00000	0.00000	0.00000	0.00000	0.00000	-3537.95776	471.55774	342.16037	0.00000	0.00000	0.00000	-3390.62842	418.80588	346.90103	0.00000	0.00000	0.00000	-3419.26904	371.63666	353.12961	-3204.25757	233.69188	286.25409	-3239.80249	225.94203	203.85445	-3165.34033	284.43652	242.41705	-3186.00391	95.83514	281.61267	-3242.52881	63.61407	224.46001	-3210.21460	101.92208	168.37517	0.00000	0.00000	0.00000	-3658.46558	990.97229	45.62880	-3710.21924	634.79578	-9.07988	-3726.36328	591.95544	3.61482	-3764.06836	653.36914	8.41144	-3773.23413	606.69373	15.48044	-3758.51245	508.98477	40.56732	-3732.36768	493.68610	154.39162	-3753.24072	392.68597	23.11881	-3746.25146	350.86710	19.74350	-3692.69043	398.78766	13.81874	0.00000	0.00000	0.00000	0.00000	0.00000	0.00000	-3731.72070	122.61803	173.83730	0.00000	0.00000	0.00000	0.00000	0.00000	0.00000	-751.96222	734.82733	2361.67432	0.00000	0.00000	0.00000
1596	6.38000	0.00000	0.00000	0.00000	-3633.99536	975.10736	292.76453	-3536.06860	586.76410	358.91068	0.00000	0.00000	0.00000	-3585.09668	590.81940	361.59973	0.00000	0.00000	0.00000	0.00000	0.00000	0.00000	-3547.71631	471.99045	342.41302	0.00000	0.00000	0.00000	-3400.67676	419.75375	347.30991	0.00000	0.00000	0.00000	-3429.42871	372.44147	353.56210	0.00000	0.00000	0.00000	-3253.20557	229.73914	201.88327	-3177.05933	288.89011	243.39038	-3191.29370	99.29818	282.50946	-3247.49365	64.84145	225.61737	-3216.67358	105.02326	169.17967	0.00000	0.00000	0.00000	-3663.22046	991.58301	45.44655	-3713.61621	634.90723	-9.25606	-3729.59937	592.03632	3.42303	-3767.55688	653.21411	8.12662	-3776.44043	606.48688	15.26100	-3761.18677	508.77979	40.56799	-3735.22852	494.12772	154.43233	-3754.88037	392.46426	23.23553	-3747.54980	350.71588	19.75978	-3694.18213	399.10526	14.35567	0.00000	0.00000	0.00000	0.00000	0.00000	0.00000	-3731.97681	122.60340	173.92819	0.00000	0.00000	0.00000	0.00000	0.00000	0.00000	-752.00977	734.79626	2361.66895	0.00000	0.00000	0.00000
1597	6.38400	0.00000	0.00000	0.00000	-3638.64771	975.73816	292.57672	-3544.57642	587.10822	358.84839	0.00000	0.00000	0.00000	-3593.51392	591.56750	361.75882	0.00000	0.00000	0.00000	0.00000	0.00000	0.00000	-3557.45117	472.59872	342.69409	0.00000	0.00000	0.00000	-3415.69312	425.34958	351.52625	0.00000	0.00000	0.00000	-3439.66992	373.35895	353.98611	-3221.94727	240.35457	287.86273	-3259.28931	229.44585	204.46906	-3184.40576	291.59473	244.12114	-3196.92651	103.12238	282.21436	-3252.27563	66.16728	226.67778	-3223.57642	107.69501	170.06554	0.00000	0.00000	0.00000	-3667.84204	992.27106	45.14509	-3716.93066	635.08655	-9.52823	-3732.60693	591.96747	3.22891	-3770.85522	653.01294	7.77656	-3779.52734	606.23279	14.96518	-3763.80859	508.59467	40.46683	-3738.14551	494.47177	154.42909	-3756.44580	392.24146	23.25956	-3748.77734	350.68582	19.66553	-3695.67822	399.43118	14.81604	0.00000	0.00000	0.00000	0.00000	0.00000	0.00000	-3732.19800	122.63699	173.99051	0.00000	0.00000	0.00000	0.00000	0.00000	0.00000	-751.95837	734.78888	2361.68579	0.00000	0.00000	0.00000
1598	6.38800	0.00000	0.00000	0.00000	-3643.38965	976.49744	292.31009	-3552.98511	587.50201	358.80673	0.00000	0.00000	0.00000	-3601.63403	592.29486	361.86688	0.00000	0.00000	0.00000	0.00000	0.00000	0.00000	-3567.11230	473.34100	342.91284	0.00000	0.00000	0.00000	-3425.31812	426.10663	351.64343	0.00000	0.00000	0.00000	-3449.87378	374.38702	354.33997	-3230.95142	243.63507	288.65237	-3269.45459	231.51538	204.51070	-3194.72754	295.22141	244.20996	-3202.90405	106.49879	282.63208	-3257.70605	67.93185	227.86737	-3230.96313	110.01385	170.98143	0.00000	0.00000	0.00000	-3672.45044	993.03912	44.85701	-3719.85205	635.22156	-9.78077	-3735.45435	591.93726	2.94412	-3773.96191	652.80432	7.42012	-3782.46826	605.99231	14.56367	-3766.11182	508.32217	40.29750	-3741.08862	494.62750	154.40048	-3757.93433	391.91263	23.38437	-3750.06348	350.68283	19.53248	-3697.05859	399.77911	15.32618	0.00000	0.00000	0.00000	0.00000	0.00000	0.00000	-3732.43994	122.69350	174.04947	0.00000	0.00000	0.00000	0.00000	0.00000	0.00000	-751.96417	734.80902	2361.69604	0.00000	0.00000	0.00000
1599	6.39200	0.00000	0.00000	0.00000	-3648.04248	977.22687	292.02145	-3561.34375	588.02222	358.74878	0.00000	0.00000	0.00000	-3609.91943	593.22253	362.00653	0.00000	0.00000	0.00000	0.00000	0.00000	0.00000	-3576.83984	474.28821	343.14200	0.00000	0.00000	0.00000	0.00000	0.00000	0.00000	0.00000	0.00000	0.00000	-3460.07178	375.43884	354.65219	-3239.95215	246.82222	288.94464	-3279.90039	233.64644	204.50526	-3204.44263	298.42041	243.97346	-3210.20557	109.01720	281.45633	-3263.41772	70.19238	229.16434	-3238.78857	111.94489	172.01900	0.00000	0.00000	0.00000	-3676.93579	993.81549	44.47046	-3722.83960	635.28149	-10.06020	-3738.22534	591.92725	2.62240	-3776.96753	652.51630	7.02732	-3785.25854	605.71509	14.17242	-3768.26294	508.09412	40.09832	-3744.12744	494.69766	154.37941	-3759.35059	391.81131	23.18136	-3751.21094	350.73285	19.31179	-3698.42358	400.14291	15.78849	0.00000	0.00000	0.00000	0.00000	0.00000	0.00000	-3732.69263	122.74525	174.09387	0.00000	0.00000	0.00000	0.00000	0.00000	0.00000	-752.02271	734.80304	2361.68848	0.00000	0.00000	0.00000
